<svg xmlns="http://www.w3.org/2000/svg" version="1.0" viewBox="0 0 300 300"><path fill="#FFF" fill-opacity=".1" d="M283.8 2.7c.7.3 1.6.2 1.9-.1.4-.3-.2-.6-1.3-.5-1.1 0-1.4.3-.6.6m-119 36c.7.3 1.6.2 1.9-.1.4-.3-.2-.6-1.3-.5-1.1 0-1.4.3-.6.6m111.8 1c-.6 1.4-.5 1.5.5.6.7-.7 1-1.5.7-1.8s-.9.2-1.2 1.2M109.4 67.2l-2.9 3.3 3.3-2.9c1.7-1.7 3.2-3.1 3.2-3.3 0-.8-.8-.1-3.6 2.9m142.5 9.5c-1.3 1.6-1.2 1.7.4.4.9-.7 1.7-1.5 1.7-1.7 0-.8-.8-.3-2.1 1.3m-157 7c-1.3 1.6-1.2 1.7.4.4.9-.7 1.7-1.5 1.7-1.7 0-.8-.8-.3-2.1 1.3m-19.4 38.4c-.4.6-.5 1.2-.2 1.5.2.3.7-.2 1-1.1.7-1.7.1-2-.8-.4m159.6 11.5c0 1.1.3 1.4.6.6.3-.7.2-1.6-.1-1.9-.3-.4-.6.2-.5 1.3m-119.8 7.9c-.3.9-.3 1.8-.1 2.1.3.3.8-.4 1.1-1.6.6-2.3-.1-2.7-1-.5m-44.2 14.1c0 1.1.3 1.4.6.6.3-.7.2-1.6-.1-1.9-.3-.4-.6.2-.5 1.3m33.3 4.6-2.9 3.3 3.3-2.9c1.7-1.7 3.2-3.1 3.2-3.3 0-.8-.8-.1-3.6 2.9m130.7 15.4c0 1.1.3 1.4.6.6.3-.7.2-1.6-.1-1.9-.3-.4-.6.2-.5 1.3m-2.5 10.1c-.6 1.4-.5 1.5.5.6.7-.7 1-1.5.7-1.8s-.9.2-1.2 1.2m-5 13c-.6 1.4-.5 1.5.5.6.7-.7 1-1.5.7-1.8s-.9.2-1.2 1.2m-7.7 13c-1.3 1.6-1.2 1.7.4.4s2.1-2.1 1.3-2.1c-.2 0-1 .8-1.7 1.7M174 249c-.9.6-1 1-.3 1 .6 0 1.5-.5 1.8-1 .8-1.2.4-1.2-1.5 0m-31 10c-.8.5-1 1-.5 1 .6 0 1.7-.5 2.5-1s1.1-1 .5-1c-.5 0-1.7.5-2.5 1M14.7 298.1c.7.7 1.5 1 1.8.7s-.2-.9-1.2-1.2c-1.4-.6-1.5-.5-.6.5"/><path fill="#FFF" fill-opacity=".2" d="M285.2 8c0 1.4.2 1.9.5 1.2.2-.6.2-1.8 0-2.5-.3-.6-.5-.1-.5 1.3M116.9 60.7c-1.3 1.6-1.2 1.7.4.4.9-.7 1.7-1.5 1.7-1.7 0-.8-.8-.3-2.1 1.3m131 20-2.4 2.8 2.8-2.4c2.5-2.3 3.2-3.1 2.4-3.1-.2 0-1.4 1.2-2.8 2.7m-31.1 48c.7.3 1.6.2 1.9-.1.4-.3-.2-.6-1.3-.5-1.1 0-1.4.3-.6.6m19.4 10.8c0 1.6.2 2.2.5 1.2.2-.9.2-2.3 0-3-.3-.6-.5.1-.5 1.8M71.1 152.6c0 1.1.3 1.4.6.6.3-.7.2-1.6-.1-1.9-.3-.4-.6.2-.5 1.3m1 13c0 1.1.3 1.4.6.6.3-.7.2-1.6-.1-1.9-.3-.4-.6.2-.5 1.3m158.4 24.5c-.4.6-.5 1.2-.2 1.5.2.3.7-.2 1-1.1.7-1.7.1-2-.8-.4m-38.6 49.6c-1.3 1.6-1.2 1.7.4.4s2.1-2.1 1.3-2.1c-.2 0-1 .8-1.7 1.7m-5 3c-1.3 1.6-1.2 1.7.4.4s2.1-2.1 1.3-2.1c-.2 0-1 .8-1.7 1.7"/><path fill="#FFF" fill-opacity=".3" d="M103.9 73.7c-1.3 1.6-1.2 1.7.4.4.9-.7 1.7-1.5 1.7-1.7 0-.8-.8-.3-2.1 1.3m.5 85.5-2.9 3.3 3.3-2.9c1.7-1.7 3.2-3.1 3.2-3.3 0-.8-.8-.1-3.6 2.9m-53.5 60.5c-1.3 1.6-1.2 1.7.4.4.9-.7 1.7-1.5 1.7-1.7 0-.8-.8-.3-2.1 1.3m154 9-2.4 2.8 2.8-2.4c2.5-2.3 3.2-3.1 2.4-3.1-.2 0-1.4 1.2-2.8 2.7M14.2 294.5c0 1.6.2 2.2.5 1.2.2-.9.2-2.3 0-3-.3-.6-.5.1-.5 1.8"/><path fill="#BFBFBF" fill-opacity=".4" d="M100.9 77.7c-1.3 1.6-1.2 1.7.4.4.9-.7 1.7-1.5 1.7-1.7 0-.8-.8-.3-2.1 1.3"/><path fill="#BFBFBF" fill-opacity=".5" d="M235.1 139.6c0 1.1.3 1.4.6.6.3-.7.2-1.6-.1-1.9-.3-.4-.6.2-.5 1.3"/><path fill="#BFBFBF" fill-opacity=".6" d="M283.6 4.3c.3 1 .9 1.5 1.2 1.2s0-1.1-.7-1.8c-1-.9-1.1-.8-.5.6m-24.7 62.4c-1.3 1.6-1.2 1.7.4.4.9-.7 1.7-1.5 1.7-1.7 0-.8-.8-.3-2.1 1.3M72.2 153.5c0 1.6.2 2.2.5 1.2.2-.9.2-2.3 0-3-.3-.6-.5.1-.5 1.8M16.1 286.6c0 1.1.3 1.4.6.6.3-.7.2-1.6-.1-1.9-.3-.4-.6.2-.5 1.3m-.3 10.1c.7.3 1.6.2 1.9-.1.4-.3-.2-.6-1.3-.5-1.1 0-1.4.3-.6.6"/><path fill="#FFF" fill-opacity=".6" d="M72.1 149.6c0 1.1.3 1.4.6.6.3-.7.2-1.6-.1-1.9-.3-.4-.6.2-.5 1.3m-29.2 80.1c-1.3 1.6-1.2 1.7.4.4.9-.7 1.7-1.5 1.7-1.7 0-.8-.8-.3-2.1 1.3"/><path fill="#BFBFBF" fill-opacity=".8" d="M283.2 10c0 1.4.2 1.9.5 1.2.2-.6.2-1.8 0-2.5-.3-.6-.5-.1-.5 1.3M231 20c-.9.6-1 1-.3 1 .6 0 1.5-.5 1.8-1 .8-1.2.4-1.2-1.5 0m49.1 2.6c0 1.1.3 1.4.6.6.3-.7.2-1.6-.1-1.9-.3-.4-.6.2-.5 1.3M176 37c-.9.6-1 1-.3 1 .6 0 1.5-.5 1.8-1 .8-1.2.4-1.2-1.5 0m-16 5c-.9.6-1 1-.3 1 .6 0 1.5-.5 1.8-1 .8-1.2.4-1.2-1.5 0m-41.1 19.7c-1.3 1.6-1.2 1.7.4.4.9-.7 1.7-1.5 1.7-1.7 0-.8-.8-.3-2.1 1.3m-4 3c-1.3 1.6-1.2 1.7.4.4.9-.7 1.7-1.5 1.7-1.7 0-.8-.8-.3-2.1 1.3m143 2c-1.3 1.6-1.2 1.7.4.4.9-.7 1.7-1.5 1.7-1.7 0-.8-.8-.3-2.1 1.3m-147 2c-1.3 1.6-1.2 1.7.4.4s2.1-2.1 1.3-2.1c-.2 0-1 .8-1.7 1.7m122 22c-1.3 1.6-1.2 1.7.4.4.9-.7 1.7-1.5 1.7-1.7 0-.8-.8-.3-2.1 1.3M83.5 107.1c-.4.6-.5 1.2-.2 1.5.2.3.7-.2 1-1.1.7-1.7.1-2-.8-.4m117-.1c-.3.6.1.7.9.4 1.8-.7 2.1-1.4.7-1.4-.6 0-1.3.4-1.6 1m-118.9 4.7c-.6 1.4-.5 1.5.5.6.7-.7 1-1.5.7-1.8s-.9.2-1.2 1.2m107.2-1c.7.3 1.6.2 1.9-.1.4-.3-.2-.6-1.3-.5-1.1 0-1.4.3-.6.6m-5.3 1.3c-1.3.6-1.5.9-.5.9.8 0 2.2-.4 3-.9 1.8-1.2.2-1.2-2.5 0m-38 12c-.3.6.1.7.9.4 1.8-.7 2.1-1.4.7-1.4-.6 0-1.3.4-1.6 1m81 3c-1.6.7-1.7.9-.3.9.9.1 2-.4 2.3-.9.7-1.1.7-1.1-2 0m-92.7.7c.7.3 1.6.2 1.9-.1.4-.3-.2-.6-1.3-.5-1.1 0-1.4.3-.6.6m100.3 9.9c0 1.1.3 1.4.6.6.3-.7.2-1.6-.1-1.9-.3-.4-.6.2-.5 1.3m-161 5c0 1.1.3 1.4.6.6.3-.7.2-1.6-.1-1.9-.3-.4-.6.2-.5 1.3m162.1 3.4c0 1.4.2 1.9.5 1.2.2-.6.2-1.8 0-2.5-.3-.6-.5-.1-.5 1.3m-38.7 1.1c-.4.6-.5 1.2-.2 1.5.2.3.7-.2 1-1.1.7-1.7.1-2-.8-.4m-91.6 9.6c-1.3 1.6-1.2 1.7.4.4.9-.7 1.7-1.5 1.7-1.7 0-.8-.8-.3-2.1 1.3M74.2 165c0 1.4.2 1.9.5 1.2.2-.6.2-1.8 0-2.5-.3-.6-.5-.1-.5 1.3m19.3 0c-.3.6.1.7.9.4 1.8-.7 2.1-1.4.7-1.4-.6 0-1.3.4-1.6 1m89.3 1.7c.7.3 1.6.2 1.9-.1.4-.3-.2-.6-1.3-.5-1.1 0-1.4.3-.6.6M85 198c-.9.6-1 1-.3 1 .6 0 1.5-.5 1.8-1 .8-1.2.4-1.2-1.5 0m-11.1 5.7c-1.3 1.6-1.2 1.7.4.4.9-.7 1.7-1.5 1.7-1.7 0-.8-.8-.3-2.1 1.3m139.5 13.5-1.9 2.3 2.3-1.9c1.2-1.1 2.2-2.1 2.2-2.3 0-.8-.8-.2-2.6 1.9m-160 2-1.9 2.3 2.3-1.9c2.1-1.8 2.7-2.6 1.9-2.6-.2 0-1.2 1-2.3 2.2m154 5-1.9 2.3 2.3-1.9c2.1-1.8 2.7-2.6 1.9-2.6-.2 0-1.2 1-2.3 2.2m-10.5 9.5c-1.3 1.6-1.2 1.7.4.4s2.1-2.1 1.3-2.1c-.2 0-1 .8-1.7 1.7m-157.6 1.5c-1.5 2-2.5 3.8-2 3.8.3 0 1.2-1.1 2.1-2.5 1.7-2.6 1.6-3.5-.1-1.3m-8.8 12.9c-.4.6-.5 1.2-.2 1.5.2.3.7-.2 1-1.1.7-1.7.1-2-.8-.4m118 6.9c-1.6.7-1.7.9-.3.9.9.1 2-.4 2.3-.9.7-1.1.7-1.1-2 0m-9 3c-.3.6.1.7.9.4 1.8-.7 2.1-1.4.7-1.4-.6 0-1.3.4-1.6 1m-32.9 9.9c-.4.5.3.7 1.4.4 2.3-.6 2.6-1.3.6-1.3-.8 0-1.7.4-2 .9m-16 5c-.4.5.3.7 1.4.4 2.3-.6 2.6-1.3.6-1.3-.8 0-1.7.4-2 .9m-37.8 11.8c.7.3 1.6.2 1.9-.1.4-.3-.2-.6-1.3-.5-1.1 0-1.4.3-.6.6m-7.3 2.3c-.3.6.1.7.9.4 1.8-.7 2.1-1.4.7-1.4-.6 0-1.3.4-1.6 1m-9.9 2.9c-.4.5.3.7 1.4.4 2.3-.6 2.6-1.3.6-1.3-.8 0-1.7.4-2 .9M29 292c-.8.5-1 1-.5 1 .6 0 1.7-.5 2.5-1s1.1-1 .5-1c-.5 0-1.7.5-2.5 1m-13.4 2.7c-.6 1.4-.5 1.5.5.6.7-.7 1-1.5.7-1.8s-.9.2-1.2 1.2m5.2 0c.7.3 1.6.2 1.9-.1.4-.3-.2-.6-1.3-.5-1.1 0-1.4.3-.6.6"/><path fill="#BFBFBF" fill-opacity=".9" d="M282 7.7c0 4.3.9 3.9 1.5-.6.2-1.7-.1-3.1-.6-3.1s-.9 1.6-.9 3.7m-7.5-.7c-1.7.8-1.6.8.8.7 1.5-.1 2.7-.5 2.7-.9 0-1-.9-.9-3.5.2m-16 4.7c-3.4.8-3.8 2-.5 1.5 1.6-.2 3-.8 3-1.3s-.1-.8-.2-.8c-.2.1-1.2.3-2.3.6m21.3 7.3c-.4 2.4-.2 2.7.9 1.9 1.5-1.3 1.8-4.9.4-4.9-.5 0-1.1 1.3-1.3 3m-47.3 1c-.3.5-.1 1 .4 1 .6 0 1.1-.5 1.1-1 0-.6-.2-1-.4-1-.3 0-.8.4-1.1 1m-13 3.7c-3.1.7-4 2.1-1.1 1.6 1.5-.3 2.9-.9 3.2-1.4s.4-.8.2-.8c-.2.1-1.2.3-2.3.6m58.8 2.8c-.3.9-.3 1.8-.1 2.1.3.3.8-.4 1.1-1.6.6-2.3-.1-2.7-1-.5m-68.8.5c-.3.5.1 1 .9 1 .9 0 1.6-.5 1.6-1 0-.6-.4-1-.9-1-.6 0-1.3.4-1.6 1m-4 2c.3.5.8 1 1.1 1 .2 0 .4-.5.4-1 0-.6-.5-1-1.1-1-.5 0-.7.4-.4 1m-5.9.9c-.3.4.6.6 1.9.3 1.4-.2 2.5-.6 2.5-.8 0-.8-3.9-.4-4.4.5m-6.1 2.1c-.3.5-.1 1 .4 1 .6 0 1.1-.5 1.1-1 0-.6-.2-1-.4-1-.3 0-.8.4-1.1 1m-7 2c-1.8.8-1.7.9.8.9 1.5.1 2.7-.4 2.7-.9 0-1.2-.8-1.2-3.5 0M171 39c-1.3.8-1.2 1 .3 1 .9 0 1.7-.5 1.7-1 0-1.2-.1-1.2-2 0m-5 2c-.9.6-1 1-.3 1 .6 0 1.5-.5 1.8-1 .8-1.2.4-1.2-1.5 0m-4.5 1c-.3.5-.2 1 .4 1 .5 0 1.3-.5 1.6-1 .3-.6.2-1-.4-1-.5 0-1.3.4-1.6 1M145 47c-1.1.7-.5.8 2 .4 4.3-.8 5.1-1.4 1.9-1.4-1.3 0-3.1.5-3.9 1m-8 3.2c-3 1.5-3.2 1.8-1.2 1.8 1.3 0 3-.7 3.9-1.5q3.3-3.45-2.7-.3m128.7 3.9c-.4 1.6-.3 1.8.9.8 1.6-1.3 1.9-2.9.5-2.9-.5 0-1.1.9-1.4 2.1M130.5 54c-.3.5.3 1 1.5 1s1.8-.5 1.5-1c-.3-.6-1-1-1.5-1s-1.2.4-1.5 1m-4.5 2.7c-4 2.6-7 5.6-7 6.7.1.6.9.1 1.9-1.2 1.1-1.2 2.2-2.2 2.6-2.2.3 0 1.8-1.1 3.3-2.5 3.1-2.9 2.8-3.1-.8-.8m136.3 1.8c-.7.8-1.3 2.1-1.3 2.9 0 .9-1.1 2.3-2.5 3.2s-2.5 2.1-2.5 2.8c.1 1.3 9-8.5 9-9.9 0-1-1.5-.4-2.7 1M113.5 67c-2.3 2.4-2.5 3-1.1 3 .9 0 1.5-.4 1.1-.9-.3-.5.7-1.9 2.1-3 1.5-1.2 2.2-2.1 1.7-2.1s-2.2 1.3-3.8 3m140.1 3.6c-.5 1.4-.4 1.5.9.4 1.7-1.4 1.9-2 .6-2-.5 0-1.2.7-1.5 1.6M108 72.1c-.8 1.2-2.9 3.5-4.5 5.3C99.2 81.8 92.8 91 94 91c.5 0 2.9-2.9 5.2-6.4 2.3-3.6 4.7-6.2 5.2-5.9.6.4.8.3.4-.1-.3-.4.7-2.1 2.3-3.7s2.9-3.4 2.9-3.9c0-1.5-.4-1.2-2 1.1m141.8 2.7c-.1.4-1.6 1.7-3.2 3-1.6 1.2-2.4 2.2-1.9 2.2.6 0 2.6-1.3 4.4-3 1.9-1.6 2.9-3 2.2-3-.6 0-1.3.3-1.5.8m-8.2 7.7c-.8.8-1.9 1.5-2.5 1.5s-1.1.4-1.1 1c0 1.6 1 1.2 4.2-1.5 1.6-1.4 2.5-2.5 1.9-2.5-.5 0-1.6.7-2.5 1.5m-8 6c-.3.9-1 1.3-1.6 1-.5-.3-1 .2-1 1.2 0 1.5.2 1.5 2.2-.5 1.2-1.2 1.9-2.4 1.6-2.7s-.8.1-1.2 1M90.2 95.6c-1.9 2.9-2.1 3.9-1.1 4.8.9.8 1 .8.5-.1-.3-.6 0-1.8.8-2.5 1.2-1.3 3.2-5.8 2.4-5.8-.2 0-1.4 1.6-2.6 3.6M228 92.8c-2.7 1.3-7.1 4.5-6.6 4.9.4.4 8.6-4.6 8.6-5.3 0-.5-.1-.5-2 .4m-14.9 7.9c-2 2.2-.9 2.4 1.8.4 1.4-1.1 1.8-1.8.9-1.8-.8 0-2 .7-2.7 1.4m-126.8 2c.4.3.1 1.3-.6 2.2-1.1 1.4-1 1.4.5.2 1.6-1.2 1.6-3.1.1-3.1-.4 0-.3.3 0 .7m118.9 1c-1.8.2-3 .8-2.7 1.2.6 1 5.3.2 6.1-1 .3-.5.4-.8.2-.7-.2 0-1.8.3-3.6.5M197 107c0 1.3 1.1 1.3 3 0 1.2-.8 1.1-1-.7-1-1.3 0-2.3.4-2.3 1m-113.3 1.5c-.4.8-.3 1.6.1 1.9s.9-.4.9-1.5c.2-2.3-.3-2.5-1-.4m106.3.5c0 1.2.8 1.2 3.5 0 1.8-.8 1.7-.9-.7-.9-1.6-.1-2.8.3-2.8.9m-5 1c-.8.5-2.4 1.1-3.4 1.5-1 .3-1.7.8-1.4 1 .6.6 6.9-1.4 8.3-2.6 1.2-1.2-1.5-1.1-3.5.1m-103.5 3.1c-.4.6-.5 1.2-.2 1.5.2.3.7-.2 1-1.1.7-1.7.1-2-.8-.4m94.3.6c.6.2 1.8.2 2.5 0 .6-.3.1-.5-1.3-.5s-1.9.2-1.2.5m-7.8 1.8c-1.3.7-3 1.1-3.7.8s-1.3 0-1.3.6-.9 1.1-1.9 1.1c-1.1 0-2.3.5-2.7 1.1-.4.8.1.9 1.7.4 8.7-2.8 12.2-4.2 11.3-4.7-.5-.4-2 0-3.4.7m-88 1.4c0 .6.4 1.2.8 1.5.5.3.9-.1.9-.9s-.4-1.5-.9-1.5c-.4 0-.8.4-.8.9m-2 5c0 .6.5 1.3 1 1.6.6.3 1-.1 1-.9 0-.9-.4-1.6-1-1.6-.5 0-1 .4-1 .9m69-.5c0 1 2.8 1.3 4.1.5 1-.6.7-.9-1.3-.9-1.6 0-2.8.2-2.8.4m-4 2.6c0 .5.7.7 1.5.4.8-.4 1.5-.8 1.5-1s-.7-.4-1.5-.4-1.5.4-1.5 1m-8 2c-1.3.9-1.3 1 0 .9.8 0 2.4-.4 3.5-.9l2-.9h-2c-1.1 0-2.7.4-3.5.9m-58.3.7c-.4.3-.7 1.8-.7 3.1 0 3.1 1.3 2.1 1.7-1.3.4-2.6.1-3-1-1.8m54.3.3c0 .5.5 1 1 1 .6 0 1-.5 1-1 0-.6-.4-1-1-1-.5 0-1 .4-1 1m97.5 0c-.3.5 0 1 .9 1 .8 0 1.9 1.2 2.4 2.7.8 2.2 1.1 2.3 1.1.8 0-1.9-2-5.5-3.2-5.5-.3 0-.9.4-1.2 1M127 129c0 .5.7.7 1.5.4.8-.4 1.5-.8 1.5-1s-.7-.4-1.5-.4-1.5.4-1.5 1m93.3.1c-1.8.5-3.3 1.2-3.3 1.4 0 .8 5.3-.6 6.5-1.6 1-1 1.1-1-3.2.2M119 131c0 1.2.8 1.2 3.5 0 1.8-.8 1.7-.9-.7-.9-1.6-.1-2.8.3-2.8.9m-3 1c0 .5.5 1 1 1 .6 0 1-.5 1-1 0-.6-.4-1-1-1-.5 0-1 .4-1 1m-40.4 2.7c-.6 1.4-.5 1.5.5.6.7-.7 1-1.5.7-1.8s-.9.2-1.2 1.2M210 134c-1.3.8-1.2 1 .3 1 .9 0 1.7-.5 1.7-1 0-1.2-.1-1.2-2 0m-96 1.5c0 .8.2 1.5.4 1.5s.6-.7 1-1.5c.3-.8.1-1.5-.4-1.5-.6 0-1 .7-1 1.5m92 1c-.7.9-.8 1.5-.2 1.5.5 0 1.2-.7 1.6-1.5.3-.8.4-1.5.2-1.5s-.9.7-1.6 1.5m27.1 2.1c0 1.1.3 1.4.6.6.3-.7.2-1.6-.1-1.9-.3-.4-.6.2-.5 1.3m-120.4.1c-.4.3-.7 1.7-.7 3 0 2.3-2.5 7.1-4.4 8.5-1.4.9 0 2.2 1.3 1.3 1.4-.8 3.8-6.5 4.4-10.5.5-3.1.5-3.4-.6-2.3m89.8 1.4c-1.1 1.7.1 2.1 1.5.4.8-.9.8-1.5.2-1.5s-1.4.5-1.7 1.1m-128.7 2.6c-.5 9.2-.4 18 .2 19.2.4.8.8-3.8.8-10.2 0-6.5-.2-11.7-.4-11.7s-.5 1.2-.6 2.7m160.5 13c0 8.8.3 12 .7 8.8.6-5 .3-21.5-.4-22.3-.3-.2-.4 5.9-.3 13.5m-38.8-5.4c-.4 1-.5 2.1-.1 2.4 1 1 1.8-.4 1.3-2.4-.4-1.7-.4-1.7-1.2 0m-92 6.2c-1.8 1.5-2.4 2.5-1.5 2.5.8-.1 2.3-1.2 3.3-2.5 2.2-3.1 2-3.1-1.8 0m88.6 3.1c0 1.1.3 1.4.6.6.3-.7.2-1.6-.1-1.9-.3-.4-.6.2-.5 1.3M99 161.1c0 .5.5.7 1 .4.6-.3 1-.8 1-1.1 0-.2-.4-.4-1-.4-.5 0-1 .5-1 1.1m-3 1.9c-.9.6-1 1-.3 1 .6 0 1.5-.5 1.8-1 .8-1.2.4-1.2-1.5 0m-6.2 1.7c-1.4.2-2.9 1-3.2 1.8-.4 1.1.1 1.2 2.7.3 3.1-1 6.1-3 4.2-2.7-.6.1-2.2.4-3.7.6M75 166.5c0 .8.4 1.5 1 1.5.5 0 .7-.7.4-1.5-.4-.8-.8-1.5-1-1.5s-.4.7-.4 1.5m110.5-.5c-.3.5-.1 1 .4 1 .6 0 1.1-.5 1.1-1 0-.6-.2-1-.4-1-.3 0-.8.4-1.1 1M82 168c0 .5.4 1 .9 1 .6 0 1.3-.5 1.6-1 .3-.6-.1-1-.9-1-.9 0-1.6.4-1.6 1m97.5 0c-1.6.7-1.7.9-.3.9.9.1 2-.4 2.3-.9.7-1.1.7-1.1-2 0m-4.5 1c-.9.6-1 1-.3 1 .6 0 1.5-.5 1.8-1 .8-1.2.4-1.2-1.5 0m-98.5 1c-.7 1.2.2 1.2 3 0 1.9-.8 1.9-.9-.2-.9-1.2-.1-2.5.3-2.8.9m92 1c-.3.5-.1 1 .4 1 .6 0 1.1-.5 1.1-1 0-.6-.2-1-.4-1-.3 0-.8.4-1.1 1m-5 2c-.3.5-.1 1 .4 1 .6 0 1.1-.5 1.1-1 0-.6-.2-1-.4-1-.3 0-.8.4-1.1 1m-11 3c-.3.5-.1 1 .4 1 .6 0 1.1-.5 1.1-1 0-.6-.2-1-.4-1-.3 0-.8.4-1.1 1m79.1 2.6c-.4 2-.5 3.8-.2 4.1.2.3.8-1.1 1.2-3.1.3-2.1.4-3.9.1-4.2-.2-.3-.8 1.1-1.1 3.2m-85.1-.6c-1.9.8-1.9.9.3.9 1.2.1 2.2-.4 2.2-.9 0-.6-.1-1-.2-.9-.2 0-1.2.4-2.3.9m-9.5 2.9c0 .5.9.7 2 .4s2-.7 2-.9-.9-.4-2-.4-2 .4-2 .9m-7.2 2.8c.7.3 1.6.2 1.9-.1.4-.3-.2-.6-1.3-.5-1.1 0-1.4.3-.6.6m-4.3 1.3c.3.5.8 1 1.1 1 .2 0 .4-.5.4-1 0-.6-.5-1-1.1-1-.5 0-.7.4-.4 1m103.8.4c.3.7-.1 2.3-.9 3.5-2 2.8-2.5 5.9-1.2 6.7.7.5.9 0 .6-1.3-.3-1.1.3-3 1.3-4.4 2.1-2.7 2.5-5.9.8-5.9-.6 0-.9.6-.6 1.4m-109.3.5c0 .5.9.7 2 .4s2-.7 2-.9-.9-.4-2-.4-2 .4-2 .9m-6 2.1c-.9.6-1 1-.3 1 .6 0 1.5-.5 1.8-1 .8-1.2.4-1.2-1.5 0m-6 2c-1.3.8-1.2 1 .3 1 .9 0 1.7-.5 1.7-1 0-1.2-.1-1.2-2 0m-4 1c-.9.6-1 1-.3 1 .6 0 1.5-.5 1.8-1 .8-1.2.4-1.2-1.5 0m-23.4 9.5c-.3.8-1.3 1.5-2.2 1.5s-2.7.9-4.1 2c-1.9 1.5-2.1 2-.9 2 .9 0 1.6-.4 1.6-.9s1.6-1.5 3.5-2.1 3.5-1.8 3.5-2.6c0-1.8-.6-1.8-1.4.1m141.1 3.4c-.4 1.7-.3 2.1.5 1.3.5-.5.8-1.6.6-2.3-.3-.8-.7-.3-1.1 1m-154.2 4.6c-1.8 1.5-2.4 2.5-1.5 2.5.8-.1 2.3-1.2 3.3-2.5 2.2-3.1 2-3.1-1.8 0m151.9-1.7c.3.6-.1 1.5-1 2s-1.2 1.2-.7 1.5 1.4-.3 2.1-1.3c.9-1.4.9-2.1 0-2.6-.6-.4-.8-.3-.4.4M61.5 213c-.3.5-.1 1 .4 1 .6 0 1.1-.5 1.1-1 0-.6-.2-1-.4-1-.3 0-.8.4-1.1 1m152.5 2.3c-.8.7-2.2 2.1-3 3.2s0 .7 1.8-.9c2.9-2.7 3.7-3.7 3-3.6-.2 0-1 .6-1.8 1.3M54.5 219c-1.6 1.6-2.5 3.3-2.2 3.7.4.3.7.1.7-.5 0-.7.6-1.2 1.3-1.2.6 0 1.7-1.1 2.4-2.5 1.4-3.2 1.3-3.1-2.2.5m-5.1 4.8c-1.6 1-3.7 5.3-3 6 .3.3.6 0 .6-.6 0-.7.9-2.1 2.1-3.3 2.1-2.1 2.3-3.4.3-2.1m155.1 2.1c-.3.6-1.1.9-1.6.6-.5-.4-.9-.1-.9.4 0 1.3 1 1.4 3 .1.8-.5 1.2-1.2.8-1.5-.3-.4-.9-.1-1.3.4M42 232c0 .5.5 1 1 1 .6 0 1-.5 1-1 0-.6-.4-1-1-1-.5 0-1 .4-1 1m152.6 2.5c-1.5 1.4-2.3 2.5-1.8 2.5s1.9-1.1 3.2-2.5 2.1-2.5 1.8-2.5-1.7 1.1-3.2 2.5m-5.6 3c-.8.9-.8 1.5-.2 1.5 1.2 0 2.6-1.9 1.9-2.6-.2-.2-1 .2-1.7 1.1m-153.4 4c-1.7 2.1-2.2 3.5-1.4 3.5 1-.1 5.3-7 4.3-7-.1 0-1.5 1.6-2.9 3.5m149.4-.4c0 .5.5.7 1 .4.6-.3 1-.8 1-1.1 0-.2-.4-.4-1-.4-.5 0-1 .5-1 1.1m-7.5 3.9c-.3.6.1.7.9.4 1.8-.7 2.1-1.4.7-1.4-.6 0-1.3.4-1.6 1m-12.5 4c0 1.3 1.1 1.3 3 0 1.2-.8 1.1-1-.7-1-1.3 0-2.3.4-2.3 1m-11.5 4c-1.3.6-1.5.9-.5.9.8 0 2.2-.4 3-.9 1.8-1.2.2-1.2-2.5 0m-10.5 3c0 1.3 1.1 1.3 3 0 1.2-.8 1.1-1-.7-1-1.3 0-2.3.4-2.3 1m-117.9 5.1c-1.3 3.9-1.3 3.9-.2 3.9.8 0 2.2-6.1 1.6-6.8-.1-.2-.8 1.1-1.4 2.9m101.9 0c0 .5.5.7 1 .4.6-.3 1-.8 1-1.1 0-.2-.4-.4-1-.4-.5 0-1 .5-1 1.1m-6 1.9c0 .5.4 1 .9 1 .6 0 1.3-.5 1.6-1 .3-.6-.1-1-.9-1-.9 0-1.6.4-1.6 1m-7 1.7c-1.4.3-2.9.9-3.5 1.5-1.1 1.1 4 .1 6.5-1.3 1.6-.9 1.1-.9-3-.2m-91.5 2.2c-.3.5-.1 1.2.5 1.6.5.3 1-.1 1-.9 0-1.8-.6-2.1-1.5-.7m77 3.1c-.3.6.1.7.9.4 1.8-.7 2.1-1.4.7-1.4-.6 0-1.3.4-1.6 1m-5.5 1c0 1.3 1.1 1.3 3 0 1.2-.8 1.1-1-.7-1-1.3 0-2.3.4-2.3 1m-73.4 2.2c-1.4 4.4-1.5 6.8-.5 6.8.7 0 1-.2.7-.6-.3-.3-.2-2.1.2-4 .7-3.2.4-4.9-.4-2.2m67.9-.2c.4.6 1.1.8 1.6.5 1.4-.9 1.1-1.5-.7-1.5-.8 0-1.2.5-.9 1m-6 2c-.3.6.1.7.9.4 1.8-.7 2.1-1.4.7-1.4-.6 0-1.3.4-1.6 1M72 277.9c0 .5.9.7 2 .4s2-.7 2-.9-.9-.4-2-.4-2 .4-2 .9m-6 2.1c0 .5.7.7 1.5.4.8-.4 1.5-.8 1.5-1s-.7-.4-1.5-.4-1.5.4-1.5 1m-48.3 4c-.3 1.1-.1 2.3.4 2.6s.9-.6.9-2c0-3.1-.6-3.4-1.3-.6m32.3 1c-.9.6-1 1-.3 1 .6 0 1.5-.5 1.8-1 .8-1.2.4-1.2-1.5 0m-11 3c0 .6 1.1.8 2.8.4 3.9-1 4-1.4.4-1.4-1.8 0-3.2.5-3.2 1m-13.5 3.7c-1.1.3-2.4.9-3 1.5-1.3 1.2 4.6-.1 6-1.3 1-1 .4-1-3-.2M17 295c-.8.5-1 1-.5 1 .6 0 1.7-.5 2.5-1s1.1-1 .5-1c-.5 0-1.7.5-2.5 1"/><path fill="#FFF" fill-opacity=".7" d="M191.1 159.6c0 1.1.3 1.4.6.6.3-.7.2-1.6-.1-1.9-.3-.4-.6.2-.5 1.3M65.9 208.7c-1.3 1.6-1.2 1.7.4.4.9-.7 1.7-1.5 1.7-1.7 0-.8-.8-.3-2.1 1.3"/><path fill="#FFF" fill-opacity=".9" d="M88.3 100.2c-1.5 2-2.5 3.8-2 3.8.3 0 1.2-1.1 2.1-2.5 1.7-2.6 1.6-3.5-.1-1.3m58.5 22.5c.7.3 1.6.2 1.9-.1.4-.3-.2-.6-1.3-.5-1.1 0-1.4.3-.6.6M141 124c0 .5.5 1 1 1 .6 0 1-.5 1-1 0-.6-.4-1-1-1-.5 0-1 .4-1 1m-16.4 4.8c-.3.5.1.9.9.9s1.5-.4 1.5-.9c0-.4-.4-.8-.9-.8-.6 0-1.2.4-1.5.8M73 152.5c0 .5.5 1.7 1 2.5s1 1 1 .5c0-.6-.5-1.7-1-2.5s-1-1.1-1-.5m32.4 1.7-1.9 2.3 2.3-1.9c2.1-1.8 2.7-2.6 1.9-2.6-.2 0-1.2 1-2.3 2.2m88.1-.2c-.3.5-.1 1 .4 1 .6 0 1.1-.5 1.1-1 0-.6-.2-1-.4-1-.3 0-.8.4-1.1 1m30.5 45.1c0 .5.5.7 1 .4.6-.3 1-.8 1-1.1 0-.2-.4-.4-1-.4-.5 0-1 .5-1 1.1m-46.4 44.8c-.4.5.3.7 1.4.4 2.3-.6 2.6-1.3.6-1.3-.8 0-1.7.4-2 .9M137 258c-1.3.8-1.2 1 .3 1 .9 0 1.7-.5 1.7-1 0-1.2-.1-1.2-2 0"/><path fill="#FFF" fill-opacity=".4" d="M252.9 74.7c-1.3 1.6-1.2 1.7.4.4.9-.7 1.7-1.5 1.7-1.7 0-.8-.8-.3-2.1 1.3"/><path fill="#BFBFBF" fill-opacity=".7" d="m252.4 74.2-1.9 2.3 2.3-1.9c1.2-1.1 2.2-2.1 2.2-2.3 0-.8-.8-.2-2.6 1.9m-19.3 102.4c0 1.1.3 1.4.6.6.3-.7.2-1.6-.1-1.9-.3-.4-.6.2-.5 1.3"/><path fill="#FFF" d="M278 6.9c0 .4-2.7 1.1-6 1.5s-6 1.1-6 1.6c0 .6-1.1 1-2.5 1s-2.5.4-2.5 1c0 .5-2.7 1.2-6 1.6s-6 1.1-6 1.5c0 .5-1.1.9-2.5.9s-2.5.4-2.5.9-2.2 1.2-5 1.6c-2.7.4-5 1.1-5 1.6s-1.6.9-3.5.9-3.5.4-3.5 1c0 .5-1.1 1-2.5 1s-2.5.4-2.5.9-2.2 1.2-5 1.6c-2.7.4-5 1.1-5 1.6s-1.1.9-2.5.9-2.5.4-2.5.9c0 .4-2.7 1.1-6 1.5s-6 1.1-6 1.6c0 .6-1.1 1-2.5 1s-2.5.4-2.5 1c0 .5-2.7 1.2-6 1.6s-6 1.1-6 1.5c0 .5-1.1.9-2.5.9s-2.5.4-2.5 1c0 .5-1 1-2.3 1s-2.8.5-3.3 1c-.6.6-3.4 1.3-6.2 1.7-2.9.3-5.2 1-5.2 1.4 0 .5-1.1.9-2.5.9s-2.5.4-2.5.9-2.2 1.2-4.8 1.6c-3.1.4-5.4 1.3-6.3 2.6-.7 1-2.4 1.9-3.6 1.9-1.4 0-2.3.6-2.3 1.5s-.9 1.5-2.1 1.5c-1.1 0-2.7.6-3.4 1.2-3.3 3-4.5 3.8-5.5 3.8-.5 0-1 .4-1 1 0 .5-1.8 2.1-4 3.5s-4 3.2-4 4-.9 1.5-2 1.5-2 .4-2 .8c0 .9-3.4 5.3-7 9.1-1.4 1.4-3.8 4.5-5.3 6.8-1.5 2.4-3.1 4.3-3.6 4.3s-1.2 1.3-1.6 3c-.4 1.6-1.1 3-1.6 3s-.9.9-.9 2-.4 2-.9 2-1.2 1.1-1.5 2.5c-.4 1.4-1.1 2.5-1.6 2.5-.6 0-1 1.1-1 2.5s-.4 2.5-1 2.5c-.5 0-1.3 1.8-1.6 4-.4 2.2-1 4-1.5 4s-.9 1.1-.9 2.5-.4 2.5-.9 2.5c-.4 0-1.1 2.3-1.4 5.1-.4 2.8-1 5.6-1.5 6.3-.5.6-1 7.2-1.1 14.7-.3 15.1.7 18.9 4.6 18.9 1.2 0 2.3-.5 2.3-1 0-.6 1.1-1 2.5-1s2.5-.5 2.5-1c0-.6.9-1 2.1-1s3.7-.8 5.6-1.7c3.9-1.8 12.3-10 12.3-12 0-.7.5-1.3 1-1.3.6 0 1-.6 1-1.4 0-.7.7-1.9 1.5-2.6s1.5-2.5 1.5-4.1c0-1.5.5-3.1 1-3.4.6-.3 1-1.5 1-2.6 0-2.9 2.4-4.9 6.5-5.6 1.9-.3 3.5-1 3.5-1.4 0-.5 1.6-.9 3.5-.9s3.5-.4 3.5-.9 2.3-1.2 5-1.6c2.8-.4 5-1.1 5-1.6s1.1-.9 2.4-.9c1.4 0 2.7-.4 3-.9s3.1-1.2 6.1-1.6c3-.3 5.5-1.1 5.5-1.6s1.1-.9 2.5-.9 2.5-.4 2.5-.9 1.2-1.1 2.8-1.4c11.9-2.5 14.2-3.1 14.2-3.9 0-.4 1-.8 2.3-.8s2.8-.5 3.3-1c.6-.6 3.4-1.3 6.2-1.7 2.9-.3 5.2-1 5.2-1.4 0-.5 1.1-.9 2.5-.9s2.5-.4 2.5-.9 2.2-1.2 4.8-1.6c3.1-.4 5.4-1.3 6.3-2.6.7-1 2.4-1.9 3.6-1.9 1.3 0 2.3-.4 2.3-1 0-.5 1.1-1.2 2.5-1.6 1.4-.3 2.5-.9 2.5-1.3s1.6-1.5 3.5-2.4 3.5-2.1 3.5-2.7c0-.5.7-1 1.5-1s1.5-.5 1.5-1c0-.6.9-1 2-1s2-.7 2-1.5.5-1.5 1-1.5c.6 0 3.4-2.3 6.2-5 2.8-2.8 5.7-5 6.5-5 .7 0 1.3-.9 1.3-2s.7-2.3 1.5-2.6c.8-.4 1.5-1.2 1.5-1.8 0-.7 1.1-2.2 2.5-3.4s2.5-2.7 2.5-3.3c0-.7.8-1.9 1.8-2.8s2.4-3.1 3.1-4.9c.8-1.7 1.9-3.2 2.6-3.2.6 0 2-2.7 3.1-6 1-3.3 2.2-6 2.6-6 .5 0 .8-1.1.8-2.5s.4-2.5.9-2.5 1.1-1.8 1.5-4c.3-2.2 1-4 1.4-4s.8-1.9.9-4.3c.2-2.3.7-4.3 1.3-4.5.5-.2 1-2.6 1-5.3 0-4.2-.3-4.9-2-4.9-1.1 0-2 .4-2 .9m-54 122c0 .5-2.2 1.2-4.8 1.6-3.1.4-5.4 1.3-6.3 2.6-.7 1-1.9 1.9-2.5 1.9-2.2 0-10.4 8.9-12.1 13.2-.9 2.3-2.5 5.2-3.5 6.2-1 1.1-1.8 3.2-1.8 4.7 0 4.3-1 5.9-3.6 5.9-1.3 0-2.4.4-2.4 1 0 .5-1.1 1-2.4 1-1.4 0-2.7.4-3.1.9-.3.5-3 1.3-6 1.6-3 .4-5.5 1.1-5.5 1.6s-1.1.9-2.5.9-2.5.4-2.5.9-2.5 1.3-5.5 1.6c-3 .4-5.5 1.1-5.5 1.6s-1.1.9-2.5.9-2.5.4-2.5 1c0 .5-1.1 1-2.4 1s-4 .7-5.9 1.5c-2 .8-4.8 1.5-6.2 1.5s-2.5.4-2.5 1c0 .5-1.1 1-2.5 1s-2.5.4-2.5.9-2.5 1.2-5.5 1.6c-3 .3-5.7 1.1-6 1.6-.4.5-1.7.9-3.1.9-1.3 0-2.4.4-2.4.9s-2.5 1.3-5.5 1.6c-3 .4-5.5 1.1-5.5 1.6s-1.3.9-3 .9c-1.6 0-3 .4-3 .9s-1.1 1.2-2.5 1.5c-1.4.4-2.5 1.1-2.5 1.6 0 .6-1.3 1-3 1-1.9 0-3 .5-3 1.4 0 .8-1.6 2-3.5 2.6s-3.5 1.6-3.5 2.1-.7.9-1.5.9c-.9 0-2.6 1.1-3.9 2.5s-3.3 2.5-4.5 2.5c-1.1 0-2.1.5-2.1 1.1 0 1.1-2.5 3.9-3.5 3.9s-3.5 2.8-3.5 3.9c0 .6-.5 1.1-1 1.1-1.4 0-6.5 5.1-7.3 7.2-.3 1-1.3 1.8-2.2 1.8-.8 0-1.5.6-1.5 1.4s-1.1 2.3-2.5 3.4-2.5 2.7-2.5 3.5-.7 2-1.5 2.7-1.5 1.9-1.5 2.6c0 .8-.9 1.4-2 1.4-1.4 0-2.1.9-2.6 3.5-.3 1.9-1 3.5-1.5 3.5s-.9.7-.9 1.5-.4 1.5-.9 1.5-1.2 2.2-1.6 5c-.4 2.7-1.1 5-1.6 5s-.9.9-.9 2-.4 2-.9 2-1.3 2.5-1.6 5.5c-.4 3-1.1 5.5-1.6 5.5s-.9 1.6-.9 3.5-.3 3.5-.7 3.5c-.5 0-.9 1.6-1 3.5-.3 3.1 0 3.5 2 3.5 1.3 0 2.8-.5 3.3-1 .6-.6 3.4-1.3 6.2-1.7 2.9-.3 5.2-1 5.2-1.4 0-.5 1.1-.9 2.5-.9s2.5-.4 2.5-.9 2.2-1.2 5-1.6c2.7-.4 5.2-1.1 5.6-1.6.3-.5 1.8-.9 3.5-.9 1.6 0 2.9-.4 2.9-.9s2.3-1.2 5-1.6c2.8-.4 5-1.1 5-1.6s1.4-.9 3-.9c1.7 0 3-.5 3-1 0-.6 1.3-1 2.9-1 1.7 0 3.2-.4 3.6-.9.3-.6 2.6-1.3 5-1.7 2.5-.3 4.5-1 4.5-1.5s1.4-.9 3-.9c1.7 0 3-.4 3-.9s2.5-1.2 5.5-1.6c3-.3 5.5-1.1 5.5-1.6s1.1-.9 2.4-.9c1.4 0 2.7-.4 3-.9.4-.5 2.9-1.2 5.6-1.6 2.8-.4 5-1.1 5-1.6s1.4-.9 3-.9c1.7 0 3-.5 3-1 0-.6 1.3-1 2.9-1 1.7 0 3.2-.4 3.6-.9.3-.6 2.6-1.3 5-1.7 2.5-.3 4.5-1 4.5-1.5s1.3-.9 2.9-.9c1.7 0 3.2-.4 3.5-.9.4-.5 2.9-1.2 5.6-1.6 2.8-.4 5-1.1 5-1.6s1.1-.9 2.5-.9 2.5-.4 2.5-.9 2.7-1.2 5.9-1.6c4.5-.5 6-1.1 6.4-2.5.3-1.1 1.8-2 4.1-2.4 2-.4 3.6-1.1 3.6-1.6 0-.6.6-1 1.3-1s1.8-.9 2.5-2 2.1-2 3.1-2 2.6-1.1 3.7-2.4c1-1.4 2.8-2.7 4.1-3.1 1.4-.3 2.3-1.3 2.3-2.5 0-1.1.7-2 1.5-2 1.5 0 6.5-4.5 6.5-5.9 0-.5 1.6-2.5 3.5-4.4s3.5-4.2 3.5-5.1.5-1.6 1-1.6c.6 0 1-.7 1-1.5s.4-1.5.9-1.5 1.3-1 1.7-2.3c.4-1.2.9-2.4 1.3-2.7 1.3-1 3.1-5 3.1-6.8 0-1 .7-2.7 1.5-3.8.8-1 1.5-2.9 1.5-4.2 0-1.2.4-2.2.8-2.2s1.6-3.9 2.6-8.6c2.2-10.6 2.1-36.4-.2-43.2-1.3-3.8-1.7-4.2-4.8-4.2-1.9 0-3.4.4-3.4.9"/><path fill="#BFBFBF" fill-opacity=".1" d="M63.9 207.7c-1.3 1.6-1.2 1.7.4.4.9-.7 1.7-1.5 1.7-1.7 0-.8-.8-.3-2.1 1.3"/></svg>